<?xml version="1.0" encoding="UTF-8" standalone="no"?>
<svg id="svg5393" xmlns:rdf="http://www.w3.org/1999/02/22-rdf-syntax-ns#" xmlns="http://www.w3.org/2000/svg" height="332.39mm" width="278.38mm" version="1.1" xmlns:cc="http://creativecommons.org/ns#" xmlns:dc="http://purl.org/dc/elements/1.1/" viewBox="0 0 986.37168 1177.7669">
<g id="layer1" transform="translate(1776 559.38)">
<g id="g4977" style="image-rendering:optimizeQuality;shape-rendering:geometricPrecision" fill-rule="evenodd" transform="matrix(35.433 0 0 35.433 -2824.2 -1224)" clip-rule="evenodd" fill="#ffdd02">
<polygon id="polygon96" transform="translate(.0000036981)" points="32.055 48.878 31.943 49.965 32.725 50.716 31.592 50.972 31.241 51.995 30.778 50.924 29.581 50.892 30.363 50.109 30.188 48.91 31.001 49.373" class="fil3"/>
<polygon id="polygon98" transform="translate(.0000036981)" points="34.592 39.717 33.507 39.892 33.012 40.884 32.645 39.988 31.512 39.701 32.182 38.933 32.07 37.67 32.932 38.214 33.842 37.798 33.73 38.789" class="fil3"/>
<polygon id="polygon100" transform="translate(.0000036981)" points="36.419 34.161 36.387 35.096 37.025 35.743 36.1 35.919 35.812 36.886 35.446 36.063 34.424 35.895 35.07 35.28 35.031 34.288 35.717 34.68" class="fil3"/>
<polygon id="polygon102" transform="translate(.0000036981)" points="37.488 32.154 36.586 32.386 36.188 33.225 35.669 32.37 34.68 32.29 35.334 31.427 35.142 30.475 35.972 30.859 36.834 30.547 36.81 31.379" class="fil3"/>
<polygon id="polygon104" transform="translate(.0000036981)" points="37.991 27.134 37.783 27.989 38.485 28.789 37.624 28.773 37.312 29.756 36.778 28.956 35.781 28.964 36.491 28.157 36.371 27.134 37.145 27.494" class="fil3"/>
<polygon id="polygon106" transform="translate(.0000036981)" points="46.352 19.907 47.19 20.826 46.129 20.922 45.682 22.066 45.004 21.042 43.759 20.906 44.469 20.291 44.358 18.892 45.435 19.34 46.368 18.756" class="fil3"/>
<polygon id="polygon108" transform="translate(.0000036981)" points="50.94 19.979 50.733 20.938 51.554 21.938 50.557 21.978 50.062 23.073 49.632 22.114 48.435 22.002 49.137 21.25 49.137 20.115 50.038 20.579" class="fil3"/>
<polygon id="polygon110" transform="translate(.0000036981)" points="46.544 28.405 46.408 29.3 46.959 29.892 46.193 30.308 45.882 31.075 45.515 30.196 44.621 30.14 45.116 29.54 45.068 28.477 45.722 28.98" class="fil3"/>
<polygon id="polygon112" transform="translate(.0000036981)" points="52.424 30.371 52.296 31.323 52.959 32.226 51.993 32.338 51.658 33.281 51.195 32.45 50.046 32.378 50.788 31.682 50.685 30.475 51.475 30.907" class="fil3"/>
<polygon id="polygon114" transform="translate(.0000036981)" points="56.677 29.58 56.533 30.643 57.419 31.61 56.366 31.81 55.863 32.97 55.432 31.922 54.331 31.658 55.009 30.955 54.77 29.692 55.664 30.164" class="fil3"/>
<path id="path116" d="m37.379 27.603c-0.1189 0.109 0.05 0.2924 0.1709 0.1816l0.1819-0.1714c0.1189-0.109-0.0501-0.2923-0.1709-0.1816l-0.1819 0.1714zm-4.4577 12.091c0.0205-0.1639-0.2272-0.1954-0.2471-0.0361l-0.0363 0.2473c-0.0205 0.1638 0.2272 0.1955 0.2471 0.0361l0.0363-0.2473zm-0.109 0.742c0.0204-0.1638-0.2272-0.1954-0.2471-0.0361l-0.0364 0.2474c-0.0204 0.1638 0.2272 0.1955 0.2471 0.0361l0.0364-0.2474zm-0.1091 0.7421c0.0205-0.1639-0.2272-0.1954-0.2471-0.0361l-0.0363 0.2473c-0.0205 0.1638 0.2272 0.1955 0.2471 0.0361l0.0363-0.2473zm-0.109 0.742c0.0204-0.1638-0.2272-0.1954-0.2471-0.0361l-0.0364 0.2474c-0.0204 0.1638 0.2272 0.1955 0.2471 0.0361l0.0364-0.2474zm-0.1091 0.7421c0.0205-0.1639-0.2272-0.1954-0.2471-0.0361l-0.0363 0.2473c-0.0205 0.1638 0.2272 0.1955 0.2471 0.0361l0.0363-0.2473zm-0.109 0.742c0.0205-0.1638-0.2272-0.1954-0.2471-0.0361l-0.0363 0.2474c-0.0204 0.1638 0.2272 0.1955 0.2471 0.0361l0.0363-0.2474zm-0.1089 0.7421c0.02-0.164-0.227-0.195-0.247-0.036l-0.0363 0.2473c-0.0205 0.1638 0.2272 0.1955 0.2471 0.0361l0.0363-0.2473zm-0.109 0.742c0.0205-0.1638-0.2272-0.1954-0.2471-0.0361l-0.0363 0.2474c-0.0204 0.1638 0.2272 0.1955 0.2471 0.0361l0.0363-0.2474zm-0.1089 0.7421c0.0204-0.1639-0.2272-0.1954-0.2471-0.0361l-0.0363 0.2473c-0.0205 0.1638 0.2272 0.1955 0.2471 0.0361l0.0363-0.2473zm-0.109 0.742c0.0205-0.1638-0.2272-0.1954-0.2471-0.0361l-0.0363 0.2474c-0.0204 0.1638 0.2272 0.1955 0.2471 0.0361l0.036-0.247zm-0.1089 0.7421c0.0204-0.1639-0.2272-0.1954-0.2471-0.0361l-0.0363 0.2473c-0.0205 0.1638 0.2272 0.1955 0.2471 0.0361l0.0363-0.2473zm-0.109 0.742c0.0205-0.1638-0.2272-0.1954-0.2471-0.0361l-0.0363 0.2474c-0.0204 0.1638 0.2272 0.1955 0.2471 0.0361l0.0363-0.2474zm-0.1089 0.742c0.0204-0.1638-0.2272-0.1954-0.2471-0.0361l-0.0363 0.2473c-0.0205 0.1638 0.2272 0.1955 0.2471 0.0361l0.0363-0.2473zm-0.109 0.742c0.0205-0.1639-0.2272-0.1954-0.2471-0.0361l-0.0363 0.2473c-0.0204 0.1638 0.2272 0.1955 0.2471 0.0361l0.0363-0.2473zm4.158-13.446c0.1002-0.1303-0.0972-0.2829-0.1953-0.1553l-0.1559 0.1955c-0.1002 0.1302 0.0971 0.283 0.1953 0.1553l0.1559-0.1955zm-0.4676 0.5865c0.1002-0.1303-0.0971-0.2829-0.1953-0.1553l-0.1558 0.1955c-0.1002 0.1302 0.0971 0.283 0.1953 0.1553l0.1558-0.1955zm-0.4675 0.5865c0.1002-0.1303-0.0972-0.2829-0.1953-0.1553l-0.1559 0.1954c-0.1002 0.1303 0.0971 0.283 0.1953 0.1553l0.1559-0.1954zm-0.4676 0.5864c0.1002-0.1303-0.0971-0.2829-0.1953-0.1553l-0.1558 0.1954c-0.1002 0.1303 0.0971 0.283 0.1953 0.1553l0.1558-0.1954zm-0.4674 0.5864c0.1002-0.1303-0.0972-0.2829-0.1953-0.1553l-0.1558 0.1954c-0.1002 0.1303 0.0971 0.283 0.1953 0.1553l0.1558-0.1954zm2.2965-5.9242c0-0.1637-0.249-0.1639-0.249-0.0029l-0.0031 0.2444c0 0.1637 0.249 0.164 0.249 0.0029l0.0031-0.2444zm-0.009 0.746c0-0.1638-0.249-0.164-0.249-0.0029l-0.0032 0.2499c0 0.1638 0.249 0.1641 0.249 0.0029l0.003-0.25zm-0.0096 0.7499c0-0.1638-0.249-0.164-0.249-0.0029l-0.0032 0.2499c0 0.1638 0.249 0.1641 0.249 0.0029l0.0032-0.2499zm-0.0096 0.7499c0-0.1638-0.249-0.164-0.249-0.0029l-0.0032 0.2499c0 0.1638 0.249 0.1641 0.249 0.0029l0.0032-0.2499zm0.9941-5.2261c0.0401-0.1603-0.2014-0.2214-0.2402-0.0664l-0.0667 0.2409c-0.0401 0.1602 0.2014 0.2215 0.2402 0.0664l0.0667-0.2409zm-0.2002 0.7228c0.04-0.1603-0.2015-0.2214-0.2402-0.0664l-0.0668 0.2409c-0.04 0.1602 0.2015 0.2215 0.2402 0.0664l0.0668-0.2409zm-0.2002 0.7227c0.04-0.1602-0.2015-0.2214-0.2402-0.0664l-0.0667 0.2409c-0.0401 0.1602 0.2014 0.2215 0.2402 0.0664l0.0667-0.2409zm8.7078-1.2036c0.1632 0.0204 0.1951-0.2271 0.0352-0.2471l-0.1904-0.0278c-0.1631-0.0204-0.1951 0.2271-0.0352 0.2471l0.1904 0.0278zm-0.6852-0.1001c0.1632 0.0204 0.1951-0.2272 0.0352-0.2471l-0.247-0.037c-0.1631-0.0204-0.1951 0.2271-0.0352 0.2471l0.2474 0.0361zm-0.742-0.109c0.1632 0.0204 0.1951-0.2271 0.0352-0.2471l-0.2474-0.0361c-0.1631-0.0203-0.1951 0.2272-0.0352 0.2471l0.2474 0.0361zm-0.7422-0.1083c0.1632 0.0204 0.1951-0.2272 0.0352-0.2471l-0.2474-0.0361c-0.1631-0.0204-0.1951 0.2271-0.0352 0.2471l0.2474 0.0361zm-0.7421-0.1084c0.1632 0.0204 0.1951-0.2271 0.0352-0.2471l-0.2474-0.0361c-0.1631-0.0203-0.1951 0.2272-0.0352 0.2471l0.2474 0.0361zm-0.7421-0.1083c0.1632 0.0204 0.1951-0.2272 0.0352-0.2471l-0.2474-0.0361c-0.1631-0.0204-0.1951 0.2271-0.0352 0.2471l0.2474 0.0361zm-0.7421-0.1083c0.1632 0.0204 0.1951-0.2272 0.0352-0.2471l-0.2474-0.0361c-0.1631-0.0204-0.1951 0.2271-0.0352 0.2471l0.2474 0.0361zm-0.7421-0.1083c0.1632 0.0204 0.1951-0.2272 0.0352-0.2471l-0.2474-0.0361c-0.1631-0.0204-0.1951 0.2271-0.0352 0.2471l0.2474 0.0361zm-0.7421-0.1083c0.1632 0.0204 0.1951-0.2272 0.0352-0.2471l-0.248-0.038c-0.1631-0.0204-0.1951 0.2271-0.0352 0.2471l0.2474 0.0361zm-0.7421-0.1083c0.1632 0.0204 0.1951-0.2272 0.0352-0.2471l-0.248-0.038c-0.1631-0.0204-0.1951 0.2271-0.0352 0.2471l0.2474 0.0361zm-0.7421-0.1083c0.1632 0.0204 0.1951-0.2272 0.0352-0.2471l-0.2474-0.0361c-0.1631-0.0204-0.1951 0.2271-0.0352 0.2471l0.2474 0.0361zm12.892 3.139c0.1507 0.0603 0.2426-0.1711 0.0918-0.2314l-0.234-0.095c-0.1506-0.0602-0.2427 0.171-0.0918 0.2314l0.2324 0.0922zm-0.6972-0.2767c0.1507 0.0603 0.2426-0.1711 0.0918-0.2314l-0.2323-0.0922c-0.1506-0.0602-0.2427 0.1711-0.0918 0.2314l0.2323 0.0922zm-0.6971-0.2766c0.1507 0.0602 0.2426-0.1711 0.0918-0.2314l-0.2323-0.0922c-0.1506-0.0602-0.2427 0.171-0.0918 0.2314l0.2323 0.0922zm-0.6971-0.2767c0.1507 0.0603 0.2426-0.1711 0.0918-0.2314l-0.234-0.094c-0.1506-0.0602-0.2427 0.1711-0.0918 0.2314l0.2323 0.0922zm-0.699-0.278c0.1505 0.0601 0.2429-0.171 0.0918-0.2314l-0.232-0.093c-0.1504-0.0602-0.2429 0.1709-0.0918 0.2314l0.2323 0.0922zm-0.6971-0.2766c0.1505 0.0601 0.2429-0.171 0.0918-0.2314l-0.2323-0.0922c-0.1504-0.0602-0.2429 0.1709-0.0918 0.2314l0.2323 0.0922zm-0.697-0.2766c0.1504 0.0601 0.2429-0.171 0.0918-0.2314l-0.2324-0.0922c-0.1504-0.0602-0.2429 0.1709-0.0918 0.2314l0.2324 0.0922zm8.0072 1.4469c0.1603-0.0301 0.1233-0.2663-0.0381-0.2461l-0.247 0.0387c-0.1604 0.03-0.1234 0.2662 0.0381 0.2461l0.247-0.0387zm-0.741 0.1161c0.1603-0.0301 0.1233-0.2663-0.0381-0.2461l-0.247 0.0387c-0.1604 0.03-0.1234 0.2662 0.0381 0.2461l0.247-0.0387zm-0.741 0.116c0.1603-0.03 0.1233-0.2662-0.0381-0.2461l-0.247 0.0387c-0.1603 0.03-0.1233 0.2662 0.0381 0.2461l0.247-0.0387zm-0.7409 0.116c0.1603-0.03 0.1233-0.2662-0.0381-0.2461l-0.247 0.0387c-0.1603 0.03-0.1233 0.2662 0.0381 0.2461l0.247-0.0387zm-3.014-10.444c0.1597 0.0399 0.2206-0.2022 0.0645-0.2412l-0.241-0.065c-0.1597-0.0399-0.2207 0.2021-0.0645 0.2412l0.2416 0.0645zm-0.7247-0.1934c0.1598 0.0399 0.2207-0.2022 0.0645-0.2412l-0.2415-0.0645c-0.1597-0.0399-0.2208 0.2022-0.0645 0.2412l0.2415 0.0645zm-0.7246-0.1934c0.1596 0.0399 0.2209-0.2021 0.0645-0.2412l-0.2416-0.0644c-0.1595-0.0399-0.2209 0.2021-0.0645 0.2412l0.2416 0.0644zm-0.7247-0.1933c0.1596 0.0399 0.221-0.2021 0.0645-0.2412l-0.2415-0.0645c-0.1595-0.0398-0.221 0.2021-0.0645 0.2412l0.2415 0.0645zm-0.7246-0.1934c0.1596 0.0399 0.2209-0.2021 0.0645-0.2412l-0.2415-0.0644c-0.1595-0.0399-0.221 0.2021-0.0645 0.2412l0.2415 0.0644zm-1.7485 0.3721c0.12-0.111-0.049-0.294-0.17-0.183l-0.182 0.1714c-0.1188 0.109 0.0501 0.2924 0.1709 0.1816l0.182-0.1714zm-0.546 0.5143c0.12-0.11-0.049-0.294-0.17-0.183l-0.182 0.1714c-0.1188 0.1089 0.0501 0.2924 0.1709 0.1816l0.182-0.1714zm-0.546 0.5142c0.1189-0.109-0.0501-0.2923-0.1709-0.1816l-0.182 0.1714c-0.1188 0.109 0.0501 0.2924 0.1709 0.1816l0.182-0.1714zm-0.546 0.5142c0.12-0.11-0.049-0.293-0.17-0.183l-0.182 0.1714c-0.1188 0.109 0.0501 0.2924 0.1709 0.1816l0.182-0.1714zm-0.546 0.5142c0.1189-0.109-0.0501-0.2923-0.1709-0.1816l-0.182 0.1714c-0.1188 0.109 0.0501 0.2924 0.1709 0.1816l0.182-0.1714zm-0.546 0.5142c0.1189-0.109-0.0501-0.2923-0.1709-0.1816l-0.182 0.1714c-0.1188 0.109 0.0501 0.2924 0.1709 0.1816l0.182-0.1714zm-0.546 0.5142c0.12-0.109-0.049-0.293-0.17-0.182l-0.182 0.1714c-0.1188 0.109 0.0501 0.2924 0.1709 0.1816l0.182-0.1714zm-0.546 0.5142c0.1189-0.109-0.0501-0.2923-0.1709-0.1816l-0.182 0.1714c-0.1188 0.109 0.0501 0.2924 0.1709 0.1816l0.182-0.1714zm-0.546 0.5142c0.12-0.109-0.049-0.292-0.17-0.182l-0.182 0.1714c-0.1188 0.109 0.0501 0.2924 0.1709 0.1816l0.182-0.1714zm-0.546 0.5142c0.1189-0.109-0.0501-0.2923-0.1709-0.1816l-0.1819 0.1714c-0.1189 0.109 0.05 0.2924 0.1709 0.1816l0.1819-0.1714zm-0.5459 0.5142c0.1189-0.109-0.0501-0.2923-0.1709-0.1816l-0.1819 0.1714c-0.1189 0.109 0.05 0.2924 0.1709 0.1816l0.1819-0.1714zm-0.5459 0.5142c0.1189-0.109-0.0501-0.2923-0.1709-0.1816l-0.1819 0.1714c-0.1189 0.109 0.05 0.2924 0.1709 0.1816l0.1819-0.1714zm-0.5459 0.5142c0.1189-0.109-0.0501-0.2923-0.1709-0.1816l-0.1819 0.1714c-0.1189 0.109 0.05 0.2924 0.1709 0.1816l0.1819-0.1714z" fill-rule="nonzero" class="fil2"/>
</g>
</g>
</svg>
